<?xml version="1.0" encoding="utf-8"?>
<!-- Generator: Adobe Illustrator 16.0.0, SVG Export Plug-In . SVG Version: 6.00 Build 0)  -->
<!DOCTYPE svg PUBLIC "-//W3C//DTD SVG 1.1//EN" "http://www.w3.org/Graphics/SVG/1.1/DTD/svg11.dtd">
<svg version="1.1" id="Calque_1" xmlns="http://www.w3.org/2000/svg" xmlns:xlink="http://www.w3.org/1999/xlink" x="0px" y="0px"
	 width="94.583px" height="42px" viewBox="-0.841 -0.747 94.583 42" enable-background="new -0.841 -0.747 94.583 42"
	 xml:space="preserve">
<metadata><?xpacket begin="﻿" id="W5M0MpCehiHzreSzNTczkc9d"?>
<x:xmpmeta xmlns:x="adobe:ns:meta/" x:xmptk="Adobe XMP Core 5.3-c011 66.145661, 2012/02/06-14:56:27        ">
   <rdf:RDF xmlns:rdf="http://www.w3.org/1999/02/22-rdf-syntax-ns#">
      <rdf:Description rdf:about=""
            xmlns:dc="http://purl.org/dc/elements/1.1/">
         <dc:format>image/svg+xml</dc:format>
      </rdf:Description>
      <rdf:Description rdf:about=""
            xmlns:xmp="http://ns.adobe.com/xap/1.0/"
            xmlns:xmpGImg="http://ns.adobe.com/xap/1.0/g/img/">
         <xmp:CreatorTool>Adobe Illustrator CS6 (Macintosh)</xmp:CreatorTool>
         <xmp:CreateDate>2018-06-28T20:59:50-04:00</xmp:CreateDate>
         <xmp:ModifyDate>2018-06-28T20:59:50-04:00</xmp:ModifyDate>
         <xmp:MetadataDate>2018-06-28T20:59:50-04:00</xmp:MetadataDate>
         <xmp:Thumbnails>
            <rdf:Alt>
               <rdf:li rdf:parseType="Resource">
                  <xmpGImg:width>256</xmpGImg:width>
                  <xmpGImg:height>112</xmpGImg:height>
                  <xmpGImg:format>JPEG</xmpGImg:format>
                  <xmpGImg:image>/9j/4AAQSkZJRgABAgEASABIAAD/7QAsUGhvdG9zaG9wIDMuMAA4QklNA+0AAAAAABAASAAAAAEA&#xA;AQBIAAAAAQAB/+4ADkFkb2JlAGTAAAAAAf/bAIQABgQEBAUEBgUFBgkGBQYJCwgGBggLDAoKCwoK&#xA;DBAMDAwMDAwQDA4PEA8ODBMTFBQTExwbGxscHx8fHx8fHx8fHwEHBwcNDA0YEBAYGhURFRofHx8f&#xA;Hx8fHx8fHx8fHx8fHx8fHx8fHx8fHx8fHx8fHx8fHx8fHx8fHx8fHx8fHx8f/8AAEQgAcAEAAwER&#xA;AAIRAQMRAf/EAaIAAAAHAQEBAQEAAAAAAAAAAAQFAwIGAQAHCAkKCwEAAgIDAQEBAQEAAAAAAAAA&#xA;AQACAwQFBgcICQoLEAACAQMDAgQCBgcDBAIGAnMBAgMRBAAFIRIxQVEGE2EicYEUMpGhBxWxQiPB&#xA;UtHhMxZi8CRygvElQzRTkqKyY3PCNUQnk6OzNhdUZHTD0uIIJoMJChgZhJRFRqS0VtNVKBry4/PE&#xA;1OT0ZXWFlaW1xdXl9WZ2hpamtsbW5vY3R1dnd4eXp7fH1+f3OEhYaHiImKi4yNjo+Ck5SVlpeYmZ&#xA;qbnJ2en5KjpKWmp6ipqqusra6voRAAICAQIDBQUEBQYECAMDbQEAAhEDBCESMUEFURNhIgZxgZEy&#xA;obHwFMHR4SNCFVJicvEzJDRDghaSUyWiY7LCB3PSNeJEgxdUkwgJChgZJjZFGidkdFU38qOzwygp&#xA;0+PzhJSktMTU5PRldYWVpbXF1eX1RlZmdoaWprbG1ub2R1dnd4eXp7fH1+f3OEhYaHiImKi4yNjo&#xA;+DlJWWl5iZmpucnZ6fkqOkpaanqKmqq6ytrq+v/aAAwDAQACEQMRAD8A9U4q7FXYq7FXYq7FXYq7&#xA;FXYq7FXYq7FXYq7FXYqhtQ1PTdNtWu9Ru4bK1QgNcXEixRgnYAu5Vd8VY7+YP5iaR5N8jXnm+VTq&#xA;FnAsZt47Z1Inad1SMLJ8ShSXqW8PHpir5C83f85cfmtrbyR6XLB5fsm2WO0jEk3HwaeYOa+6KuKv&#xA;L9X88+dNZcvq2vahfk9ri6mkA+QZiB9GKpHiqP03Xtc0tg+majdWLDcNbTSQmvzRlxV6H5X/AOcm&#xA;Pzj8vsirrjarbrStvqii6DU8ZWpP90mKvfPy+/5zG8oaxJHZebbNvL921FF6hM9mx/yiB6kVT4hg&#xA;O7Yq+gLK+sr+0ivLGeO6tJ1DwXELCSN1PRlZSQR8sVVsVdirsVdirsVdirsVdirsVdirsVdirsVd&#xA;irsVdirsVdirsVdirsVdirzrXv8AnID8r9C85L5R1HU2j1MOsU8ojZraGV6cUllGyn4hU9F/aIxV&#xA;4t/znFe3QufKVkJWFoUvJmgB+EyAxKHI7kKSB4VPjirFNBvbq4/5w68yRTytJHaa/HDbKxqI4ybS&#xA;UqvtzkZvmcVeCYq7FXYq7FXYq7FWf/lX+dXnL8udQV9MnN1o8j8rzRZ2Jt5QftFOvpSU6Ov0hhti&#xA;r7p/Lb8zPLH5g+X01jQ5jVTwvLGWgnt5f5JFBPXqrDYj6cVZZirsVdirsVdirsVdirsVdirsVdir&#xA;sVdirsVdirsVS/SPMfl7WvrH6H1S01L6o/pXX1OeOf0pP5JPTZuLbdDirA9b/wCcg/IWj/mTB5Bu&#xA;xdHVJZYbaS7SNDaxT3IUxRuxcPvzFSFIH30VZf5w88+U/J2nJqPmXUo9NtJZBFE8gd2dyCeKJGHd&#xA;thU0GKpjo+saXrOmW2qaVcx3mn3aCS2uYjyR1PcH9eKozFX5wfnX/wCTc83/APbVuv8Ak6cVew/8&#xA;5tXguNb8phN4TZXE0bbgkSyJ1+hBirFfKzuf+cUfOaFjwGu2hC12BP1YE096DFXieKuxV2KuxV2K&#xA;uxV2Kso/Ln8xPMPkHzNBr2iy0dPgu7Vj+6uICQXikHgabHqDuMVfob5E87aJ518r2XmLR5OVpdr8&#xA;UbU5xSrtJFIB0ZDt+I2OKp/irsVdirsVdirsVdirsVdirsVdirsVdirAvzr/ADPf8t/JR8wRWS6h&#xA;cyXMVpb27v6ac5VZuTEAkgLGdhiq3T/PJ81fknc+b47Y2j3mj3lwbUty4SRRyKwDgCo5xmhp0xV8&#xA;/f8AOEM4HmvzLBzoZLCF/TrseE1K09uf44qw380L6Mf85QXV1xPCDXLHku1T6JgU0+fHFXpv/Ocs&#xA;7C38mQUHGR9RcnvVBbAf8TxVOfy21y807/nDy8vLaZra4s7LVI7a4iqJFaS5m4sD2YNLsR0xVgP/&#xA;ADhXrGo/8rD1nTWupDZXOly3UluzEq1xHcwKslD+1wkYVxV5B+bJJ/NTzlX/AKvmpf8AUXJir1//&#xA;AJzII/S3k0d/0Sdv9mMVY35TnDf84u+eIKbx6zYOW7EO0Ip/wmKvGcVdirsVdirsVdirsVdir3D/&#xA;AJxU/NKTyr53Ty7fzU0LzE6wkMfhhvT8MEor05/3bfME/ZxV9yYq7FXYq7FXYq7FXYq7FXYq7FXY&#xA;q7FWH+ZvzY8k+WvNukeVNXvGh1nW+H1OMRsyASyGGIyOBRQ8ilR8t6DFXl3/ADmtKg/LDSIif3ja&#xA;3Cyr4hbS5BP/AAwxVV/Kq89P/nEG4mUiR7bRtdJUnukl2wU/RTFXl3/OE0qD8xdbhJ/ePpDuo9ku&#xA;YAf+JjFWDfmteQp/zkHrNyKvHDraFgNjWKRAwFad1OKvWP8AnOWdWuPJkFDyjTUXJ7Uc2wH/ABDF&#xA;UR5HuOf/ADhlrqtRRCl7GD48rgN+t6Yqwb/nDb/ybk3/AGyrn/k7DirzH80Zkn/M3zdNH9iXWtRd&#xA;a7GjXchGKvUP+cspHk1nyXI55O/l22ZmPUku5JxVKPKP/rNHn3/tq6b/AMnExV4/irsVdirsVdir&#xA;sVdirsVXI7o6ujFXUgqwNCCOhBxV+kP5QedD5z/LjQ/MEjh7u4txHf02/wBJgJimNO3J0LD2OKsx&#xA;xV2KuxV2KuxV2KuxV2KuxV2KuxV8e/8AOS99JH/zkZ5XkoG+pw6XwX5XsslD9LYqzX/nNuZB5I8v&#xA;wGvN9TZ18KJbuD/xMYqo/lbfKv8Azh7r/FSTFYa1A9dhWUSbj5CTFXnX/OF06R/mvfowJM2i3CLT&#xA;xFzbPv8AQmKvPfzcuY4vzn80XFeaQ61cs3Eg/wB3OeQ+e1MVeyf85xSIdZ8pxg/GtveMy9wGeIA/&#xA;8KcVU/Js/q/84ZeaE409C7kjrWta3Fs9f+HpirEP+cQiR+cluAaA2F2D7jiDirzT8wv+U+8y/wDb&#xA;Vvv+ol8Vem/85SXsdxrHkkRg8D5WsJlY91leWm3+wxVJ/Jn/AKz7+Yv/ADHaN/yefFXlWKuxV2Ku&#xA;xV2KuxV2KuxV2KvsL/nCTXmuPKnmHQncn9H3sV3Gp7JdxlKD25WxP0++KvpLFXYq7FXYq7FXYq7F&#xA;WN+ffzC8seRNJt9V8xTvb2dzdRWUTxoZD6koZqkL0VURmY+A2qaAqpn5k16x8veX9R12/wCRstMt&#xA;pbu4EY5OUhQuQoJFWNKDfFUo/LTz9YeffJtj5msreS0iu+avbSkM0ckTmN15Lswqux2qOwxVHaT5&#xA;z8q6vrep6HpmpwXWraMypqVnG1XiLdjtRqHZuNeJ2NDtir4y/wCcqb6KP89ZpaNSzgsfUpSp4oJP&#xA;h38GxV6d/wA5wThfL/laCm8l3cycvDhGgp9PPFUs/LC+df8AnD/zdVQREdQgXttKkW5+RkOKsH/5&#xA;w8n9L84AnGvr6bdR1rSlDG9f+Epirzr82P8AyafnL/tual/1GSYq9m/5zVnW48w+VZ1BCy6dI6g9&#xA;QGlB3xVDeULtj/zhn5zEdUaHV44mPiHn08n/AIWSmKsZ/wCcTZHX87NKVTQSW94rjxH1d2p96jFX&#xA;m3nSZ5/OOuzvTnLqN27U6VadyaYq9H/5yT/46vkX/wAA3Sv+Jz4ql3kqct+RP5lQU2jutCcHvV7i&#xA;Yf8AGmKvMMVdirsVdirsVdirsVdirsVZH5R/MPzj5PS/Xy1qUmmtqSJHdyRKhdljJKhWZWKULHda&#xA;HFUv1XzR5l1eRpNW1a81B2rya6uJZia9fts2KqWna5remOJNN1C5snX7L200kRFd9ihXFXqfkf8A&#xA;5ym/NXy1LHHfXo8w6cCOdtqNXlp343I/ehv9csPbFX1t+Vf50+TfzHsS+kzG21WFQ15pFwQJ4x0L&#xA;LTaSOv7S/SAdsVZ7irsVeRa5+ZetWn/OSXl/yPFcKuhXukyvc25RKm7YTzK/P7WyW6BR7nxxVhH/&#xA;ADm9ecPKvlqy/wB/X003T/fMPHr/AM9sVegfnDrfrf8AOO2r6ryJ+vaRbtyB3P1v0l6mnX1MVY7/&#xA;AM4a3v1j8pJ4f+WPVrmHt+1FDL/zNxV5x/zjBrAn/wCcgPNr1qmpwajKvHcFvr0UgNTvTiWxVgH/&#xA;ADlNO0v55+YlLBliWyRKdh9RgYj/AIJjir0z/nM6/a40H8v2Deot1FeXBlPUn07Wh+n1MVSv8s7x&#xA;o/8AnEPz8CeZTUJYwhP2Vljsl/WxOKsT/wCcSp2j/OrTUABE1reI1ewEDPt9KYq87/ML/lPvMv8A&#xA;21b7/qJfFXrf/OXc63HmHyhOoIWXQIHUHqA0sh3xVS8pXyp/ziF52tQpLPrtvybsAzWLCn/InFUi&#xA;/wCcWJnj/PPy6i9JVvUf5Cxnf9ajFXnfmz/lKdZ/5jrn/k82Ks4/PWWWW78kPI5dj5O0Q1Y16wsT&#xA;+Jriqn5IdB+Sn5mIWHMzaAQtdyBdTgmntUYq82xV2KuxV2KuxV2KuxV2KuxV2KuxV2KuxVH6Frur&#xA;6Dq9rrGj3T2WpWTiS2uYzRlYfgQRsQdiNjtir9BvyU/Nax/MfydFqihYdXtCLfWLNT/dzUqHUdfT&#xA;lHxL9I7Yql/5ffmpf+Y/zV88+UblYVtNAeIaYYwRIVT91c+oSfi/e0IoBSvfFXhnnzzF6H/OZWnT&#xA;B6R2t/plhzrsBcQRI/hsDcNXFUw/5zjveWoeULIH+6ivpiN6/vWgUV7f7qNMVZB+ZGtet/zhxpLF&#xA;qtdWGkWhJBJLW8sVdz3/ANH64qh/+cLNVWDyZ5sjfdLK6jumGw2eAg7/APPHFXk3/OKuovH+eWkC&#xA;RiXvor2N223P1aSbevvHiqSf85EzrN+dXmp1BAF0ib+McMaH8VxV6B/zlRfS3Xlb8rXYrxfR3nAX&#xA;pylhteVOu3wjFUB+X16kX/OKv5joBykXULMMOg4zy2sYNfoOKpD/AM4sTPH+efl1F6Sreo/yFjO/&#xA;61GKvPfN7u/mzWndiztf3RZiakkzMSSTir1H/nKG7NxrvktxURP5T06VEPb1JJyfwAxVT8r3cC/8&#xA;4uec7YkiVtcsuIpt8XpEb/KJsVSr/nGacwfnj5XcCpMlylD4SWcyE/8ADYq871b/AI6t5/xnk/4m&#xA;cVZx+c17DdXPk30q/uPKWjQvUU+JIDWntviqzyZ/5Kf8xf8Atzf9Rj4q8/xV2KuxV2KuxV2KuxV2&#xA;KuxV2KuxV2KuxV2KvXf+cXvPM3lj81dPtHkK6b5gI0y7jJPEySn/AEZ6dOQm4rXsGbFWWf8AOOnm&#xA;oT/85Ja3cF9vMZ1WgqByZ5/rg2oN6Qntirzn80fMLJ+euv6ypJNhrrlGFf8AjynCLTf/AIq8cVeg&#xA;f85qX6z/AJjaPbI4eODR45AQ1RymuJ+3T7KKcVX+b9bMn/OHXk+Et+9k1ZrR1BI+GGS8cGhryACp&#xA;X3xVS/5xd1gaf5W/NOpA4aH9cqQT/vNDc+H/ABl6Yq89/IO9+pfnJ5Tm/mv0g7H+/Voe/wDr4qh/&#xA;zunaf83fN7swcjVLmOop0jkKAbeHGmKsw/P66afyf+VHUInlm3UITUVRI4y3+y4Yqh/JF8U/5xv/&#xA;ADJtOFQ99pHx16c7lW6U/wCKfxxVLf8AnGuR4/zv8rMh4kzTqSPBrSZSPpBxV5/rcsk2tX8sh5SS&#xA;XMzu2wqWkJJ2xV6R/wA5B331zUfJEgXig8n6PwHfi6ySb+/x4qs8uzRn/nHfzhDy/eLremMV9mRw&#xA;P+IHFUH/AM47ziD86fKrkVBumSg8ZIZEB/4bFWAX0yT3txOleEsrutetGYkVxVl35o/70+Wf/Ac0&#xA;r/kxiqp5Pmcflr5/hH2Hi0p28apfAD/iZxVg2KuxV2KuxV2KuxV2KuxV2KuxV2KuxV2KuxVE6dfT&#xA;6fqFrf254z2k0c8TeDxsHU/eMVeuf841eX7hPz/0+0ZmB0Zr9rgjY/uoZYPxdxXFWC/mbp08H5o+&#xA;aLADlKNZvY4+g5crl+B60FQRir0j/nMDTG0/8y9MiLmRDodoFkNST6cs0W9a7/BXFVPzLpMsX/OJ&#xA;XlK+qSs3mC4kpStAwuoq1HTeDv44qo/8486VLeeWvzTljLVTyvdQqqsFq8qO6g18fRp8sVYR+TNo&#xA;91+bPk+Ja1XV7OXbfaGdZT+CYq3+c1qbb82vOEZBHLV7yX4uv76ZpPu+PbFWXfntpb2nlH8q52qf&#xA;X8swgMW5CnwzACu+wn/hiqzyRYyP/wA45fmTdcgES+0jbepK3Cqf+TwxVLf+cbbZrj87vK0a1qs0&#xA;8mx47RWssh3+S/TirAddheDW9Qhk+3FczI1NxVZCDir0b/nIGwey1DyREzBv+dP0cKaUNESSPcdt&#xA;0OKqPl/T1f8A5x7823h5EprmmUp9kFI5V3/5H/qxVDf848QGf86fKiA8aXbSV6/3cLvT6eOKsAvI&#xA;Bb3k8APIRSOgY9SFYjFWY/mnbS28/lYSKyiXy3pcqc61KvETUV7eHtiq/wAnwFvyz/MCeu0celIV&#xA;7kvfA1/4TFWC4q7FXYq7FXYq7FXYq7FXYq7FXYq7FXYq7FUXpGnTanqtlpsAJmvZ4reIAVPKVwi7&#xA;fNsVfXH5HeVDZf8AOR35mXhjpHZPMse2y/pK6FylKgU+CMge2KvLvzH8umT/AJyyGllf3d9remSM&#xA;d6FLgQSyEfZrTk3Q4qyT/nN+y4eZ/LN7/v8Asp4a71/cyhvl/u7FU18/aJ6P/OG3lwEUNuLK9FSf&#xA;+PmVzXp/y8Yqhv8AnEDRhd+TPzCZlr9fhhstwGFBBcVHHr/u7fxxV5Z/zjRY/XPzu8sRkVWKS4nY&#xA;0JA9G1lkBPh8Sj6cVU/+ckbT6p+dvmmKlOU8M1K1/vrWKX/jfFXpH/OWekfUvJ/5ZALQ2thNaSEn&#xA;f4ILTiKDbajdMVUPyz0v1P8AnEr8wJm+H1r5mWoqCtsto4I/2VRirFv+cS7UTfnXpkhpW2tryUVF&#xA;TUwNHt4H95irz38xLb6p+YHme14hPQ1a+i4DoOFy60Hypir1z/nL3TTZ+YPKFVpx0GG25kUY+hI+&#xA;xHtzxVQ8p2Bb/nEPzrd8qcddtyVI2Ko9ku30y/hiqQ/84s2xm/PLy81FKwreyMG/5gplFPcMwOKv&#xA;PfN0Bt/NetW5QRmG/uYzGKALxmYUFNtqYq9C/wCchLBbO98iIpZgfJujgudgTGJY9voQYqhfJVtT&#xA;8jPzJuTQ8rnQo1/mHG4lZvoPIYq8xxV2KuxV2KuxV2KuxV2KuxV2KuxV2KuxV2KvZ/8AnFTyDN5l&#xA;/M621WaMnS/LdL6eQj4TcCotUB/m9T958kOKvuiO1tYppp4oUSe4KmeVVAeQoOKl2Aq1F2FcVfOf&#xA;mvy6Jf8AnMzy1IV+CfT11GQ7f8e8FzGp2P8APAoxVA/85x2fPSvKN7/vme9h6/7+SFun/PHFWbfm&#xA;1ohh/wCcWZ9K4kNYaPpa8R1H1R7dj9rfpHiqT/8AOFdkIvyy1S7Io9zq8oB23SO3gA9/tM2KvI/+&#xA;cU9HMX56zQld9Ktb4kE1K8WFv1Xb/dmKoH/nKrTC/wCel5HHQPqENiQQv7RiWEVp9r7GKvV/+c2b&#xA;GNfJnlmdFVVt7+SBB3CyQE0Ht+6xVT/KbSwf+cQvMpFFNzaazc1FWJMUbLuD3Po0xVgH/OF1qZfz&#xA;U1CYg8bfR52qOnJri3UA/QT92KsB/NnSy352+ZbD0yPrWtzfAp3P1mflUdd251xV6/8A85xWwXWP&#xA;KVzxIMtveR8+x9N4mp9HqYqt8m6eW/5wx8zUX1PWuZbjiRsPSubfcV8PSrirD/8AnEG2M35yQScQ&#xA;31ewu5CT+zVVjqP+Dpirzn8z4Bb/AJlebIAeQi1nUEDHqQt1IK4q9X/5y2sGtdQ8kciOS6DFAUUb&#xA;Awt2P+z8MVSTylbcf+cY/Pd1Rf3ur6dFUfa/dvG2/t+82+nFXjuKuxV2KuxV2KuxV2KuxV2KuxV2&#xA;KuxV2Kp15P8AJ/mDzf5gttB0G2N1f3R2HRI0H2pZW/ZRe5/jir9B/wApvyz0r8u/J9toNkRNck+v&#xA;qd9ShnuWADvTsopxQdlHjUlVmeKoR9I0uTVItVe0hbU4Imt4b0xqZkhchmjWSnIKSoNK4q87/P8A&#xA;/KjUvzJ8r6bpOm3UVpc2moxXMkk/Lj6BR4paBQasokDAd6U74qyj8yPLVxr/AOXev+X9PjQ3V7p8&#xA;9vZRNRU9X0z6S1Oy/EBv2xVjn/OO/knWvJ35W6fpWtQ/VtUklmuri25K5j9Z6orFduXALUVNDirB&#xA;fyN/KjzX5X/OjzvrmqWH1bSphcwabdchwmS7u0uU9IA7gRxjl/KdutcVSb8+/wAtfNmu/n35S1LT&#xA;NIu73SJo7FLy+hjZoITBeSNN6sijjGBEVb4uvauKsz/5y18q635i/K+BNGspr+60/UobySC2jMsv&#xA;oiGaJiEWrEAyqTQHb23xVNPyp8mazZf8472nle9tpLTVrrTb+N7adeEiSXzzuiurU4kCYVDdO+Kv&#xA;M/8AnEH8u/OHl/zF5h1PX9Fu9Kj+rR2cDXkTwGRzLzf01cLzUemPiG3virGvzE/Kbzrff85LC5td&#xA;DuptGv8AU7O9GoJHIbUQL6RuHecDinAhqgmvh1GKs9/5zF8i+Z/Mek+Wr/QtNudUOmTXcVzDZxtP&#xA;Iq3QhKt6cYZyKwUqBtiqbeTvy38yx/8AOLNx5SuLOSHzBe2N7ImnyERyCWWaSaCJuWysy8KhqUJo&#xA;aYq8+/5xD/LjzhpPnzVdb1vRrrTbK30+WzjkvIpLdmuZJ4jRFkCl+KRPyPQbYqwf82/ya/Ma9/OX&#xA;W7fTtAuriDWdQkubK9hhc2pS6fnzedV9NOJf95yO3fFXrX/OXn5a+atetfLepeW9Ln1ODTFntLm2&#xA;s43nuEWT0zEwjQNI6/AwJA279cVSXy5+TvnmL/nFvzBo0mlyReYNS1BdVt9MdSty1vCbccGQ/EJC&#xA;IHZUO+4HU4q+eT+Xf5gKSD5Z1YEbEGxuag/8BirX/KvfP3/Utar/ANINz/zRirv+Ve+fv+pa1X/p&#xA;Buf+aMVd/wAq98/f9S1qv/SDc/8ANGKu/wCVe+fv+pa1X/pBuf8AmjFXf8q98/f9S1qv/SDc/wDN&#xA;GKu/5V75+/6lrVf+kG5/5oxV3/KvfP3/AFLWq/8ASDc/80Yq7/lXvn7/AKlrVf8ApBuf+aMVd/yr&#xA;3z9/1LWq/wDSDc/80Yq7/lXvn7/qWtV/6Qbn/mjFUTYflX+Zl/L6Vp5U1aRtgT9SnVRXpyZkCr07&#xA;nFXqfkf/AJw8/MPWJY5vMssPl2wO7ozLc3ZH+THE3prX/Keo8MVfVf5dflb5O/L/AEo2Hl6z9N5a&#xA;G7v5aPdTsOhlkoNh2VQFHYdcVZbir//Z</xmpGImg:image>
               </rdf:li>
            </rdf:Alt>
         </xmp:Thumbnails>
      </rdf:Description>
      <rdf:Description rdf:about=""
            xmlns:xmpMM="http://ns.adobe.com/xap/1.0/mm/"
            xmlns:stRef="http://ns.adobe.com/xap/1.0/sType/ResourceRef#"
            xmlns:stEvt="http://ns.adobe.com/xap/1.0/sType/ResourceEvent#">
         <xmpMM:DocumentID>xmp.did:0180117407206811822AB101DFAFF562</xmpMM:DocumentID>
         <xmpMM:InstanceID>xmp.iid:0180117407206811822AB101DFAFF562</xmpMM:InstanceID>
         <xmpMM:DerivedFrom rdf:parseType="Resource">
            <stRef:instanceID>uuid:981E3EA93164DF118E6D90B556E55533</stRef:instanceID>
            <stRef:documentID>uuid:971E3EA93164DF118E6D90B556E55533</stRef:documentID>
            <stRef:originalDocumentID>uuid:971E3EA93164DF118E6D90B556E55533</stRef:originalDocumentID>
         </xmpMM:DerivedFrom>
         <xmpMM:OriginalDocumentID>uuid:971E3EA93164DF118E6D90B556E55533</xmpMM:OriginalDocumentID>
         <xmpMM:History>
            <rdf:Seq>
               <rdf:li rdf:parseType="Resource">
                  <stEvt:action>saved</stEvt:action>
                  <stEvt:instanceID>xmp.iid:0180117407206811822AB101DFAFF562</stEvt:instanceID>
                  <stEvt:when>2018-06-28T20:59:50-04:00</stEvt:when>
                  <stEvt:softwareAgent>Adobe Illustrator CS6 (Macintosh)</stEvt:softwareAgent>
                  <stEvt:changed>/</stEvt:changed>
               </rdf:li>
            </rdf:Seq>
         </xmpMM:History>
      </rdf:Description>
      <rdf:Description rdf:about=""
            xmlns:xmpTPg="http://ns.adobe.com/xap/1.0/t/pg/"
            xmlns:stDim="http://ns.adobe.com/xap/1.0/sType/Dimensions#"
            xmlns:xmpG="http://ns.adobe.com/xap/1.0/g/">
         <xmpTPg:MaxPageSize rdf:parseType="Resource">
            <stDim:w>94.583496</stDim:w>
            <stDim:h>42.000000</stDim:h>
            <stDim:unit>Pixels</stDim:unit>
         </xmpTPg:MaxPageSize>
         <xmpTPg:NPages>1</xmpTPg:NPages>
         <xmpTPg:HasVisibleTransparency>False</xmpTPg:HasVisibleTransparency>
         <xmpTPg:HasVisibleOverprint>False</xmpTPg:HasVisibleOverprint>
         <xmpTPg:PlateNames>
            <rdf:Seq>
               <rdf:li>Cyan</rdf:li>
               <rdf:li>Magenta</rdf:li>
               <rdf:li>Yellow</rdf:li>
               <rdf:li>Black</rdf:li>
            </rdf:Seq>
         </xmpTPg:PlateNames>
         <xmpTPg:SwatchGroups>
            <rdf:Seq>
               <rdf:li rdf:parseType="Resource">
                  <xmpG:groupName>Default Swatch Group</xmpG:groupName>
                  <xmpG:groupType>0</xmpG:groupType>
                  <xmpG:Colorants>
                     <rdf:Seq>
                        <rdf:li rdf:parseType="Resource">
                           <xmpG:swatchName>R=0 G=0 B=0</xmpG:swatchName>
                           <xmpG:mode>RGB</xmpG:mode>
                           <xmpG:type>PROCESS</xmpG:type>
                           <xmpG:red>0</xmpG:red>
                           <xmpG:green>0</xmpG:green>
                           <xmpG:blue>0</xmpG:blue>
                        </rdf:li>
                     </rdf:Seq>
                  </xmpG:Colorants>
               </rdf:li>
            </rdf:Seq>
         </xmpTPg:SwatchGroups>
      </rdf:Description>
   </rdf:RDF>
</x:xmpmeta>
                                                                                                    
                                                                                                    
                                                                                                    
                                                                                                    
                                                                                                    
                                                                                                    
                                                                                                    
                                                                                                    
                                                                                                    
                                                                                                    
                                                                                                    
                                                                                                    
                                                                                                    
                                                                                                    
                                                                                                    
                                                                                                    
                                                                                                    
                                                                                                    
                                                                                                    
                                                                                                    
                           
<?xpacket end="w"?>
	</metadata>
<path d="M1.053,24.152c-0.194,0-0.348,0.15-0.373,0.364L0,29.681l0.68,5.076c0.025,0.215,0.179,0.363,0.373,0.363
	c0.188,0,0.341-0.148,0.371-0.361l0,0v-0.001c0,0,0,0,0,0.001l0.806-5.078l-0.806-5.166C1.395,24.302,1.24,24.152,1.053,24.152z
	 M4.877,21.33c-0.032-0.222-0.191-0.375-0.387-0.375c-0.197,0-0.36,0.158-0.388,0.375c0,0.002-0.914,8.351-0.914,8.351l0.914,8.166
	c0.026,0.219,0.189,0.377,0.388,0.377c0.194,0,0.354-0.154,0.386-0.375l1.04-8.168L4.877,21.33z M19.281,13.627
	c-0.375,0-0.686,0.307-0.703,0.697L17.85,29.688l0.729,9.929c0.019,0.388,0.328,0.694,0.703,0.694c0.372,0,0.682-0.308,0.703-0.696
	v0.003l0.823-9.93l-0.823-15.364C19.963,13.934,19.654,13.627,19.281,13.627z M11.826,18.967c-0.288,0-0.523,0.23-0.547,0.537
	L10.46,29.685l0.819,9.849c0.022,0.305,0.259,0.534,0.547,0.534c0.284,0,0.52-0.229,0.545-0.534l0.932-9.849l-0.932-10.183
	C12.346,19.197,12.111,18.967,11.826,18.967z M26.857,40.31c0.465,0,0.844-0.375,0.862-0.854l0.714-9.763L27.72,9.238
	c-0.019-0.48-0.396-0.855-0.862-0.855c-0.469,0-0.848,0.376-0.862,0.856c0,0.001-0.634,20.453-0.634,20.453l0.634,9.766
	C26.01,39.935,26.389,40.31,26.857,40.31z M42.367,40.356c0.64,0,1.168-0.527,1.18-1.176v0.008v-0.008l0.498-9.481L43.547,6.075
	c-0.011-0.647-0.54-1.175-1.18-1.175c-0.642,0-1.171,0.527-1.181,1.176L40.742,29.69c0,0.016,0.444,9.496,0.444,9.496
	C41.197,39.829,41.727,40.356,42.367,40.356z M34.553,40.319c0.557,0,1.006-0.447,1.021-1.018v0.008l0.605-9.615L35.573,9.092
	c-0.016-0.57-0.465-1.016-1.021-1.016c-0.561,0-1.01,0.446-1.022,1.016l-0.538,20.604l0.54,9.611
	C33.543,39.872,33.992,40.319,34.553,40.319z M15.539,40.229c0.331,0,0.599-0.266,0.624-0.614l0.878-9.931l-0.878-9.448
	c-0.024-0.349-0.292-0.612-0.624-0.612c-0.336,0-0.604,0.265-0.625,0.616l-0.773,9.443l0.773,9.93
	C14.936,39.964,15.203,40.229,15.539,40.229z M8.143,39.685c0.242,0,0.438-0.19,0.466-0.455l0.986-9.547L8.61,19.774
	c-0.028-0.265-0.225-0.456-0.467-0.456c-0.245,0-0.44,0.192-0.466,0.456c0,0.001-0.868,9.909-0.868,9.909l0.868,9.545
	C7.701,39.493,7.897,39.685,8.143,39.685z M38.445,8.749c-0.604,0-1.09,0.481-1.102,1.097l-0.492,19.85l0.492,9.553
	c0.012,0.607,0.496,1.089,1.102,1.089c0.604,0,1.087-0.479,1.101-1.096v0.008l0.552-9.552L39.545,9.844
	C39.531,9.23,39.049,8.749,38.445,8.749z M23.055,40.33c0.418,0,0.763-0.341,0.783-0.776l0.768-9.863l-0.768-18.877
	c-0.021-0.436-0.365-0.776-0.783-0.776c-0.422,0-0.766,0.341-0.784,0.776c0,0.001-0.68,18.877-0.68,18.877l0.681,9.867
	C22.289,39.989,22.633,40.33,23.055,40.33z M31.631,39.399v-0.006l0.66-9.699L31.631,8.55c-0.016-0.525-0.43-0.937-0.941-0.937
	c-0.514,0-0.928,0.411-0.941,0.937l-0.586,21.143l0.587,9.705c0.014,0.521,0.428,0.932,0.94,0.932s0.924-0.411,0.941-0.934V39.399z
	 M81.549,17.506c-1.567,0-3.062,0.317-4.424,0.888C76.215,8.086,67.571,0,57.027,0c-2.58,0-5.095,0.508-7.315,1.367
	c-0.863,0.334-1.093,0.678-1.102,1.345v36.301c0.01,0.699,0.553,1.282,1.235,1.352c0.029,0.003,31.499,0.019,31.703,0.019
	c6.315,0,11.437-5.12,11.437-11.438C92.985,22.628,87.865,17.506,81.549,17.506z M46.272,2.68c-0.687,0-1.251,0.564-1.261,1.257
	l-0.516,25.765l0.517,9.352c0.009,0.682,0.573,1.245,1.26,1.245c0.686,0,1.249-0.563,1.259-1.256v0.011l0.562-9.352L47.531,3.935
	C47.521,3.244,46.957,2.68,46.272,2.68z"/>
</svg>
